<?xml version="1.0" standalone="no"?>
<!DOCTYPE svg PUBLIC "-//W3C//DTD SVG 20010904//EN"
 "http://www.w3.org/TR/2001/REC-SVG-20010904/DTD/svg10.dtd">
<svg version="1.0" xmlns="http://www.w3.org/2000/svg"
 width="512.000000pt" height="512.000000pt" viewBox="0 0 512.000000 512.000000"
 preserveAspectRatio="xMidYMid meet">

<g transform="translate(0.000000,512.000000) scale(0.100000,-0.100000)"
fill="#000000" stroke="none">
<path d="M1100 5109 c-38 -15 -88 -68 -101 -106 l-11 -33 -78 0 c-43 0 -91 -5
-107 -11 -31 -11 -78 -53 -96 -84 -9 -14 -13 -199 -17 -660 l-5 -640 -170 -5
c-102 -3 -178 -10 -190 -17 -33 -19 -72 -66 -84 -102 -16 -48 -16 -1314 0
-1362 7 -19 23 -47 38 -62 50 -55 73 -61 249 -65 l162 -4 0 -840 c0 -913 -3
-863 57 -920 40 -38 74 -48 163 -48 l78 0 11 -33 c13 -39 64 -91 104 -106 17
-7 113 -11 232 -11 183 0 205 2 226 19 16 13 23 29 23 55 0 67 -9 70 -237 76
l-202 5 -3 902 -2 903 1434 2 1434 3 43 30 c85 60 80 11 77 786 l-3 686 -28
36 c-55 72 69 67 -1522 67 l-1435 0 2 698 3 697 1639 3 c1305 2 1641 0 1648
-10 9 -15 11 -4768 2 -4792 -6 -14 -129 -16 -1299 -16 -1292 0 -1292 0 -1319
-21 -19 -15 -26 -30 -26 -54 0 -24 7 -39 26 -54 l27 -21 1298 0 c1457 0 1353
-5 1410 73 16 22 29 48 29 59 0 16 9 18 83 18 88 0 146 19 180 58 48 53 46
-24 47 2003 l0 1906 -21 27 c-26 33 -79 36 -109 6 -20 -20 -20 -33 -20 -1919
0 -1045 -3 -1906 -6 -1915 -5 -12 -21 -16 -75 -16 l-69 0 0 2260 0 2260 69 0
c54 0 70 -4 75 -16 3 -9 6 -99 6 -200 0 -171 1 -185 20 -204 30 -30 83 -27
109 6 20 25 21 39 21 218 -1 199 -8 245 -47 288 -34 39 -92 58 -179 58 -81 0
-82 0 -87 28 -8 40 -45 82 -91 103 -39 18 -106 19 -1701 18 -1073 0 -1669 -4
-1685 -10z m-112 -911 l-3 -623 -72 -3 -73 -3 0 619 c0 340 3 622 7 625 3 4
37 7 75 7 l68 0 -2 -622z m2992 -1427 c0 -582 -2 -649 -16 -655 -29 -11 -3544
-7 -3565 4 -18 10 -19 28 -19 649 0 351 3 641 7 644 3 4 813 7 1800 7 l1793 0
0 -649z m-2990 -1641 l0 -831 -72 3 -73 3 -3 828 -2 827 75 0 75 0 0 -830z"/>
<path d="M641 3124 c-20 -26 -21 -38 -21 -354 0 -316 1 -328 21 -354 27 -34
77 -36 107 -3 20 21 22 34 22 155 l0 132 90 0 c83 0 93 2 115 25 14 13 25 36
25 50 0 14 -11 37 -25 50 -22 23 -32 25 -115 25 l-90 0 0 74 0 74 106 4 c97 3
107 5 125 27 26 32 24 73 -4 99 -22 21 -33 22 -179 22 l-157 0 -20 -26z"/>
<path d="M1353 3128 c-19 -21 -263 -645 -263 -673 0 -28 41 -65 74 -65 45 0
63 16 89 85 l23 60 136 3 136 3 17 -50 c9 -27 25 -61 36 -75 39 -50 129 -23
129 38 0 42 -237 659 -261 679 -31 25 -91 22 -116 -5z m108 -360 l28 -78 -74
0 c-41 0 -75 3 -75 7 0 4 17 50 37 102 32 84 37 92 46 70 5 -13 22 -59 38
-101z"/>
<path d="M2088 3135 c-51 -17 -131 -73 -172 -122 -14 -17 -39 -58 -54 -90 -23
-50 -27 -70 -27 -153 0 -85 3 -102 31 -160 37 -78 107 -150 182 -187 44 -21
74 -28 143 -31 111 -6 170 13 239 75 41 37 50 51 50 79 0 72 -72 97 -132 45
-50 -43 -71 -51 -133 -51 -133 0 -234 98 -235 228 -1 176 183 287 345 207 63
-31 80 -31 110 0 50 49 28 98 -65 146 -58 29 -209 37 -282 14z"/>
<path d="M2625 3130 c-24 -27 -23 -76 2 -101 14 -15 39 -22 81 -26 l61 -6 3
-282 c3 -262 4 -285 22 -304 26 -29 86 -29 112 0 18 19 19 42 22 304 l3 282
62 6 c50 5 66 10 84 32 28 32 29 55 2 89 l-20 26 -208 0 c-196 0 -209 -1 -226
-20z"/>
<path d="M3372 3137 c-118 -43 -177 -180 -122 -286 26 -51 55 -73 148 -111
160 -66 181 -77 188 -104 14 -59 -30 -96 -113 -96 -52 0 -119 26 -143 54 -48
58 -140 26 -140 -49 0 -27 71 -94 128 -122 51 -25 68 -28 158 -28 94 0 103 2
149 30 104 64 143 180 95 280 -31 64 -71 93 -212 151 -117 48 -123 52 -126 81
-7 69 101 86 201 33 67 -36 76 -36 111 -9 89 70 -52 190 -222 188 -37 0 -82
-6 -100 -12z"/>
<path d="M1488 4147 c-43 -36 -48 -58 -48 -197 0 -209 16 -225 222 -225 122 0
139 2 165 21 51 37 63 77 63 202 0 125 -11 166 -55 200 -26 20 -39 22 -174 22
-137 0 -148 -2 -173 -23z m250 -199 l-3 -73 -72 -3 -73 -3 0 76 0 75 75 0 76
0 -3 -72z"/>
<path d="M2060 4150 c-38 -38 -22 -100 31 -119 45 -16 1943 -16 1988 0 53 19
69 81 31 119 -20 20 -33 20 -1025 20 -992 0 -1005 0 -1025 -20z"/>
<path d="M2060 3850 c-43 -43 -14 -113 52 -125 18 -3 161 -5 316 -3 l284 3 24
28 c29 34 30 56 3 91 l-20 26 -320 0 c-306 0 -320 -1 -339 -20z"/>
<path d="M2930 3850 c-22 -22 -26 -60 -10 -90 19 -36 62 -40 420 -40 358 0
401 4 420 40 16 30 12 68 -10 90 -19 19 -33 20 -410 20 -377 0 -391 -1 -410
-20z"/>
<path d="M1488 1787 c-43 -36 -48 -58 -48 -197 0 -209 16 -225 222 -225 122 0
139 2 165 21 51 37 63 77 63 202 0 125 -11 166 -55 200 -26 20 -39 22 -174 22
-137 0 -148 -2 -173 -23z m250 -199 l-3 -73 -72 -3 -73 -3 0 76 0 75 75 0 76
0 -3 -72z"/>
<path d="M2060 1790 c-38 -38 -22 -100 31 -119 45 -16 1943 -16 1988 0 53 19
69 81 31 119 -20 20 -33 20 -1025 20 -992 0 -1005 0 -1025 -20z"/>
<path d="M2060 1490 c-43 -43 -14 -113 52 -125 18 -3 161 -5 316 -3 l284 3 24
28 c29 34 30 56 3 91 l-20 26 -320 0 c-306 0 -320 -1 -339 -20z"/>
<path d="M2930 1490 c-38 -38 -22 -100 31 -119 44 -15 714 -15 758 0 53 19 69
81 31 119 -19 19 -33 20 -410 20 -377 0 -391 -1 -410 -20z"/>
<path d="M1488 1187 c-43 -36 -48 -58 -48 -197 0 -209 16 -225 222 -225 122 0
139 2 165 21 51 37 63 77 63 202 0 125 -11 166 -55 200 -26 20 -39 22 -174 22
-137 0 -148 -2 -173 -23z m250 -199 l-3 -73 -72 -3 -73 -3 0 76 0 75 75 0 76
0 -3 -72z"/>
<path d="M2060 1190 c-38 -38 -22 -100 31 -119 45 -16 1943 -16 1988 0 53 19
69 81 31 119 -20 20 -33 20 -1025 20 -992 0 -1005 0 -1025 -20z"/>
<path d="M2060 890 c-43 -43 -14 -113 52 -125 18 -3 161 -5 316 -3 l284 3 24
28 c29 34 30 56 3 91 l-20 26 -320 0 c-306 0 -320 -1 -339 -20z"/>
<path d="M2930 890 c-38 -38 -22 -100 31 -119 44 -15 714 -15 758 0 53 19 69
81 31 119 -19 19 -33 20 -410 20 -377 0 -391 -1 -410 -20z"/>
</g>
</svg>
